ISO-10303-21;
HEADER;
/* Generated by software containing ST-Developer
 * from STEP Tools, Inc. (www.steptools.com) 
 */
/* OPTION: using custom renumber hook */

FILE_DESCRIPTION(
/* description */ ('STEP AP242 Edition 2',
'CAx-IF Rec.Pracs.---Representation and Presentation of Product Manufa
cturing Information (PMI)---4.0---2014-10-13',
'CAx-IF Rec.Pracs.---3D Tessellated Geometry---0.4---2014-09-14','2;1',
'CAx-IF Rec.Pracs.---User Defined Attributes---1.5---2016-08-15'),
/* implementation_level */ '2;1');

FILE_NAME(
/* name */ 'Part Studio 1 - bottom',
/* time_stamp */ '2026-05-23T07:01:06Z',
/* author */ (''),
/* organization */ (''),
/* preprocessor_version */ 'ST-DEVELOPER v20',
/* originating_system */ 'ONSHAPE BY PTC INC, 1.215',
/* authorisation */ '  ');

FILE_SCHEMA (('AP242_MANAGED_MODEL_BASED_3D_ENGINEERING_MIM_LF { 1 0 10303 442 3 1 4 }'));
ENDSEC;

DATA;
#10=SHAPE_REPRESENTATION_RELATIONSHIP('','',#672,#11);
#11=ADVANCED_BREP_SHAPE_REPRESENTATION('',(#670),#1157);
#12=SPHERICAL_SURFACE('',#731,0.001);
#13=SPHERICAL_SURFACE('',#742,0.001);
#14=SPHERICAL_SURFACE('',#744,0.001);
#15=SPHERICAL_SURFACE('',#750,0.001);
#16=TOROIDAL_SURFACE('',#707,0.002,0.001);
#17=TOROIDAL_SURFACE('',#718,0.002,0.001);
#18=TOROIDAL_SURFACE('',#720,0.002,0.001);
#19=TOROIDAL_SURFACE('',#726,0.002,0.001);
#20=TOROIDAL_SURFACE('',#753,0.00555739975381731,0.001);
#21=CYLINDRICAL_SURFACE('',#688,0.00455739975381731);
#22=CYLINDRICAL_SURFACE('',#705,0.001);
#23=CYLINDRICAL_SURFACE('',#710,0.001);
#24=CYLINDRICAL_SURFACE('',#712,0.001);
#25=CYLINDRICAL_SURFACE('',#714,0.001);
#26=CYLINDRICAL_SURFACE('',#716,0.001);
#27=CYLINDRICAL_SURFACE('',#722,0.001);
#28=CYLINDRICAL_SURFACE('',#724,0.001);
#29=CYLINDRICAL_SURFACE('',#728,0.001);
#30=CYLINDRICAL_SURFACE('',#729,0.001);
#31=CYLINDRICAL_SURFACE('',#734,0.001);
#32=CYLINDRICAL_SURFACE('',#736,0.001);
#33=CYLINDRICAL_SURFACE('',#738,0.001);
#34=CYLINDRICAL_SURFACE('',#740,0.001);
#35=CYLINDRICAL_SURFACE('',#746,0.001);
#36=CYLINDRICAL_SURFACE('',#748,0.001);
#37=CYLINDRICAL_SURFACE('',#752,0.001);
#38=CIRCLE('',#675,0.002);
#39=CIRCLE('',#676,0.002);
#40=CIRCLE('',#677,0.002);
#41=CIRCLE('',#678,0.002);
#42=CIRCLE('',#685,0.00555739975381731);
#43=CIRCLE('',#689,0.00455739975381731);
#44=CIRCLE('',#690,0.00455739975381731);
#45=CIRCLE('',#696,0.001);
#46=CIRCLE('',#697,0.001);
#47=CIRCLE('',#698,0.001);
#48=CIRCLE('',#699,0.001);
#49=CIRCLE('',#701,0.001);
#50=CIRCLE('',#702,0.001);
#51=CIRCLE('',#703,0.001);
#52=CIRCLE('',#704,0.001);
#53=CIRCLE('',#706,0.001);
#54=CIRCLE('',#708,0.001);
#55=CIRCLE('',#709,0.001);
#56=CIRCLE('',#711,0.001);
#57=CIRCLE('',#713,0.001);
#58=CIRCLE('',#715,0.001);
#59=CIRCLE('',#717,0.001);
#60=CIRCLE('',#719,0.001);
#61=CIRCLE('',#721,0.001);
#62=CIRCLE('',#723,0.001);
#63=CIRCLE('',#725,0.001);
#64=CIRCLE('',#727,0.001);
#65=CIRCLE('',#730,0.001);
#66=CIRCLE('',#732,0.001);
#67=CIRCLE('',#733,0.001);
#68=CIRCLE('',#735,0.001);
#69=CIRCLE('',#737,0.001);
#70=CIRCLE('',#739,0.001);
#71=CIRCLE('',#741,0.001);
#72=CIRCLE('',#743,0.001);
#73=CIRCLE('',#745,0.001);
#74=CIRCLE('',#747,0.001);
#75=CIRCLE('',#749,0.001);
#76=CIRCLE('',#751,0.001);
#77=ORIENTED_EDGE('',*,*,#259,.T.);
#78=ORIENTED_EDGE('',*,*,#260,.T.);
#79=ORIENTED_EDGE('',*,*,#261,.F.);
#80=ORIENTED_EDGE('',*,*,#262,.T.);
#81=ORIENTED_EDGE('',*,*,#263,.F.);
#82=ORIENTED_EDGE('',*,*,#264,.T.);
#83=ORIENTED_EDGE('',*,*,#265,.F.);
#84=ORIENTED_EDGE('',*,*,#266,.T.);
#85=ORIENTED_EDGE('',*,*,#267,.F.);
#86=ORIENTED_EDGE('',*,*,#268,.T.);
#87=ORIENTED_EDGE('',*,*,#269,.F.);
#88=ORIENTED_EDGE('',*,*,#270,.T.);
#89=ORIENTED_EDGE('',*,*,#271,.T.);
#90=ORIENTED_EDGE('',*,*,#272,.T.);
#91=ORIENTED_EDGE('',*,*,#273,.T.);
#92=ORIENTED_EDGE('',*,*,#274,.T.);
#93=ORIENTED_EDGE('',*,*,#275,.T.);
#94=ORIENTED_EDGE('',*,*,#276,.T.);
#95=ORIENTED_EDGE('',*,*,#277,.T.);
#96=ORIENTED_EDGE('',*,*,#278,.T.);
#97=ORIENTED_EDGE('',*,*,#279,.T.);
#98=ORIENTED_EDGE('',*,*,#280,.T.);
#99=ORIENTED_EDGE('',*,*,#281,.T.);
#100=ORIENTED_EDGE('',*,*,#282,.T.);
#101=ORIENTED_EDGE('',*,*,#283,.T.);
#102=ORIENTED_EDGE('',*,*,#284,.T.);
#103=ORIENTED_EDGE('',*,*,#285,.F.);
#104=ORIENTED_EDGE('',*,*,#286,.T.);
#105=ORIENTED_EDGE('',*,*,#287,.T.);
#106=ORIENTED_EDGE('',*,*,#288,.T.);
#107=ORIENTED_EDGE('',*,*,#289,.F.);
#108=ORIENTED_EDGE('',*,*,#290,.T.);
#109=ORIENTED_EDGE('',*,*,#291,.T.);
#110=ORIENTED_EDGE('',*,*,#292,.T.);
#111=ORIENTED_EDGE('',*,*,#293,.T.);
#112=ORIENTED_EDGE('',*,*,#294,.T.);
#113=ORIENTED_EDGE('',*,*,#295,.T.);
#114=ORIENTED_EDGE('',*,*,#296,.F.);
#115=ORIENTED_EDGE('',*,*,#297,.T.);
#116=ORIENTED_EDGE('',*,*,#298,.T.);
#117=ORIENTED_EDGE('',*,*,#299,.T.);
#118=ORIENTED_EDGE('',*,*,#300,.T.);
#119=ORIENTED_EDGE('',*,*,#301,.T.);
#120=ORIENTED_EDGE('',*,*,#302,.T.);
#121=ORIENTED_EDGE('',*,*,#303,.T.);
#122=ORIENTED_EDGE('',*,*,#304,.T.);
#123=ORIENTED_EDGE('',*,*,#305,.F.);
#124=ORIENTED_EDGE('',*,*,#306,.F.);
#125=ORIENTED_EDGE('',*,*,#307,.T.);
#126=ORIENTED_EDGE('',*,*,#308,.T.);
#127=ORIENTED_EDGE('',*,*,#309,.F.);
#128=ORIENTED_EDGE('',*,*,#308,.F.);
#129=ORIENTED_EDGE('',*,*,#310,.F.);
#130=ORIENTED_EDGE('',*,*,#311,.T.);
#131=ORIENTED_EDGE('',*,*,#312,.T.);
#132=ORIENTED_EDGE('',*,*,#305,.T.);
#133=ORIENTED_EDGE('',*,*,#309,.T.);
#134=ORIENTED_EDGE('',*,*,#312,.F.);
#135=ORIENTED_EDGE('',*,*,#313,.F.);
#136=ORIENTED_EDGE('',*,*,#314,.T.);
#137=ORIENTED_EDGE('',*,*,#306,.T.);
#138=ORIENTED_EDGE('',*,*,#314,.F.);
#139=ORIENTED_EDGE('',*,*,#315,.F.);
#140=ORIENTED_EDGE('',*,*,#316,.T.);
#141=ORIENTED_EDGE('',*,*,#307,.F.);
#142=ORIENTED_EDGE('',*,*,#316,.F.);
#143=ORIENTED_EDGE('',*,*,#317,.T.);
#144=ORIENTED_EDGE('',*,*,#310,.T.);
#145=ORIENTED_EDGE('',*,*,#275,.F.);
#146=ORIENTED_EDGE('',*,*,#318,.T.);
#147=ORIENTED_EDGE('',*,*,#289,.T.);
#148=ORIENTED_EDGE('',*,*,#319,.T.);
#149=ORIENTED_EDGE('',*,*,#285,.T.);
#150=ORIENTED_EDGE('',*,*,#320,.T.);
#151=ORIENTED_EDGE('',*,*,#281,.F.);
#152=ORIENTED_EDGE('',*,*,#321,.T.);
#153=ORIENTED_EDGE('',*,*,#317,.F.);
#154=ORIENTED_EDGE('',*,*,#315,.T.);
#155=ORIENTED_EDGE('',*,*,#313,.T.);
#156=ORIENTED_EDGE('',*,*,#311,.F.);
#157=ORIENTED_EDGE('',*,*,#261,.T.);
#158=ORIENTED_EDGE('',*,*,#322,.T.);
#159=ORIENTED_EDGE('',*,*,#296,.T.);
#160=ORIENTED_EDGE('',*,*,#323,.T.);
#161=ORIENTED_EDGE('',*,*,#292,.F.);
#162=ORIENTED_EDGE('',*,*,#324,.T.);
#163=ORIENTED_EDGE('',*,*,#300,.F.);
#164=ORIENTED_EDGE('',*,*,#325,.T.);
#165=ORIENTED_EDGE('',*,*,#326,.F.);
#166=ORIENTED_EDGE('',*,*,#286,.F.);
#167=ORIENTED_EDGE('',*,*,#319,.F.);
#168=ORIENTED_EDGE('',*,*,#288,.F.);
#169=ORIENTED_EDGE('',*,*,#327,.F.);
#170=ORIENTED_EDGE('',*,*,#326,.T.);
#171=ORIENTED_EDGE('',*,*,#328,.F.);
#172=ORIENTED_EDGE('',*,*,#263,.T.);
#173=ORIENTED_EDGE('',*,*,#318,.F.);
#174=ORIENTED_EDGE('',*,*,#278,.F.);
#175=ORIENTED_EDGE('',*,*,#329,.F.);
#176=ORIENTED_EDGE('',*,*,#290,.F.);
#177=ORIENTED_EDGE('',*,*,#328,.T.);
#178=ORIENTED_EDGE('',*,*,#287,.F.);
#179=ORIENTED_EDGE('',*,*,#330,.F.);
#180=ORIENTED_EDGE('',*,*,#264,.F.);
#181=ORIENTED_EDGE('',*,*,#327,.T.);
#182=ORIENTED_EDGE('',*,*,#270,.F.);
#183=ORIENTED_EDGE('',*,*,#331,.F.);
#184=ORIENTED_EDGE('',*,*,#283,.F.);
#185=ORIENTED_EDGE('',*,*,#320,.F.);
#186=ORIENTED_EDGE('',*,*,#284,.F.);
#187=ORIENTED_EDGE('',*,*,#332,.F.);
#188=ORIENTED_EDGE('',*,*,#282,.F.);
#189=ORIENTED_EDGE('',*,*,#330,.T.);
#190=ORIENTED_EDGE('',*,*,#329,.T.);
#191=ORIENTED_EDGE('',*,*,#333,.F.);
#192=ORIENTED_EDGE('',*,*,#265,.T.);
#193=ORIENTED_EDGE('',*,*,#331,.T.);
#194=ORIENTED_EDGE('',*,*,#269,.T.);
#195=ORIENTED_EDGE('',*,*,#334,.F.);
#196=ORIENTED_EDGE('',*,*,#332,.T.);
#197=ORIENTED_EDGE('',*,*,#333,.T.);
#198=ORIENTED_EDGE('',*,*,#277,.F.);
#199=ORIENTED_EDGE('',*,*,#335,.F.);
#200=ORIENTED_EDGE('',*,*,#266,.F.);
#201=ORIENTED_EDGE('',*,*,#334,.T.);
#202=ORIENTED_EDGE('',*,*,#268,.F.);
#203=ORIENTED_EDGE('',*,*,#336,.F.);
#204=ORIENTED_EDGE('',*,*,#279,.F.);
#205=ORIENTED_EDGE('',*,*,#267,.T.);
#206=ORIENTED_EDGE('',*,*,#335,.T.);
#207=ORIENTED_EDGE('',*,*,#337,.F.);
#208=ORIENTED_EDGE('',*,*,#336,.T.);
#209=ORIENTED_EDGE('',*,*,#321,.F.);
#210=ORIENTED_EDGE('',*,*,#280,.F.);
#211=ORIENTED_EDGE('',*,*,#337,.T.);
#212=ORIENTED_EDGE('',*,*,#276,.F.);
#213=ORIENTED_EDGE('',*,*,#338,.F.);
#214=ORIENTED_EDGE('',*,*,#301,.F.);
#215=ORIENTED_EDGE('',*,*,#324,.F.);
#216=ORIENTED_EDGE('',*,*,#295,.F.);
#217=ORIENTED_EDGE('',*,*,#339,.F.);
#218=ORIENTED_EDGE('',*,*,#338,.T.);
#219=ORIENTED_EDGE('',*,*,#340,.F.);
#220=ORIENTED_EDGE('',*,*,#323,.F.);
#221=ORIENTED_EDGE('',*,*,#299,.F.);
#222=ORIENTED_EDGE('',*,*,#341,.F.);
#223=ORIENTED_EDGE('',*,*,#293,.F.);
#224=ORIENTED_EDGE('',*,*,#340,.T.);
#225=ORIENTED_EDGE('',*,*,#294,.F.);
#226=ORIENTED_EDGE('',*,*,#342,.F.);
#227=ORIENTED_EDGE('',*,*,#271,.F.);
#228=ORIENTED_EDGE('',*,*,#339,.T.);
#229=ORIENTED_EDGE('',*,*,#274,.F.);
#230=ORIENTED_EDGE('',*,*,#343,.F.);
#231=ORIENTED_EDGE('',*,*,#302,.F.);
#232=ORIENTED_EDGE('',*,*,#325,.F.);
#233=ORIENTED_EDGE('',*,*,#303,.F.);
#234=ORIENTED_EDGE('',*,*,#344,.F.);
#235=ORIENTED_EDGE('',*,*,#262,.F.);
#236=ORIENTED_EDGE('',*,*,#342,.T.);
#237=ORIENTED_EDGE('',*,*,#341,.T.);
#238=ORIENTED_EDGE('',*,*,#345,.F.);
#239=ORIENTED_EDGE('',*,*,#344,.T.);
#240=ORIENTED_EDGE('',*,*,#343,.T.);
#241=ORIENTED_EDGE('',*,*,#346,.F.);
#242=ORIENTED_EDGE('',*,*,#345,.T.);
#243=ORIENTED_EDGE('',*,*,#298,.F.);
#244=ORIENTED_EDGE('',*,*,#347,.F.);
#245=ORIENTED_EDGE('',*,*,#272,.F.);
#246=ORIENTED_EDGE('',*,*,#346,.T.);
#247=ORIENTED_EDGE('',*,*,#273,.F.);
#248=ORIENTED_EDGE('',*,*,#348,.F.);
#249=ORIENTED_EDGE('',*,*,#259,.F.);
#250=ORIENTED_EDGE('',*,*,#348,.T.);
#251=ORIENTED_EDGE('',*,*,#347,.T.);
#252=ORIENTED_EDGE('',*,*,#349,.F.);
#253=ORIENTED_EDGE('',*,*,#322,.F.);
#254=ORIENTED_EDGE('',*,*,#260,.F.);
#255=ORIENTED_EDGE('',*,*,#349,.T.);
#256=ORIENTED_EDGE('',*,*,#297,.F.);
#257=ORIENTED_EDGE('',*,*,#291,.F.);
#258=ORIENTED_EDGE('',*,*,#304,.F.);
#259=EDGE_CURVE('',#350,#351,#405,.T.);
#260=EDGE_CURVE('',#351,#352,#406,.F.);
#261=EDGE_CURVE('',#353,#352,#407,.T.);
#262=EDGE_CURVE('',#353,#350,#408,.T.);
#263=EDGE_CURVE('',#354,#355,#38,.F.);
#264=EDGE_CURVE('',#354,#356,#409,.T.);
#265=EDGE_CURVE('',#357,#356,#39,.F.);
#266=EDGE_CURVE('',#357,#358,#410,.F.);
#267=EDGE_CURVE('',#359,#358,#40,.F.);
#268=EDGE_CURVE('',#359,#360,#411,.F.);
#269=EDGE_CURVE('',#361,#360,#41,.F.);
#270=EDGE_CURVE('',#361,#355,#412,.T.);
#271=EDGE_CURVE('',#362,#363,#413,.T.);
#272=EDGE_CURVE('',#363,#364,#414,.F.);
#273=EDGE_CURVE('',#364,#365,#415,.F.);
#274=EDGE_CURVE('',#365,#362,#416,.T.);
#275=EDGE_CURVE('',#366,#367,#417,.T.);
#276=EDGE_CURVE('',#367,#368,#418,.T.);
#277=EDGE_CURVE('',#368,#369,#419,.T.);
#278=EDGE_CURVE('',#369,#366,#420,.F.);
#279=EDGE_CURVE('',#370,#371,#421,.T.);
#280=EDGE_CURVE('',#371,#372,#422,.F.);
#281=EDGE_CURVE('',#372,#373,#423,.T.);
#282=EDGE_CURVE('',#373,#370,#424,.T.);
#283=EDGE_CURVE('',#374,#375,#425,.F.);
#284=EDGE_CURVE('',#375,#376,#426,.F.);
#285=EDGE_CURVE('',#377,#376,#427,.T.);
#286=EDGE_CURVE('',#377,#374,#428,.T.);
#287=EDGE_CURVE('',#378,#379,#429,.F.);
#288=EDGE_CURVE('',#379,#380,#430,.F.);
#289=EDGE_CURVE('',#381,#380,#431,.T.);
#290=EDGE_CURVE('',#381,#378,#432,.T.);
#291=EDGE_CURVE('',#382,#382,#42,.F.);
#292=EDGE_CURVE('',#383,#384,#433,.T.);
#293=EDGE_CURVE('',#384,#385,#434,.T.);
#294=EDGE_CURVE('',#385,#386,#435,.F.);
#295=EDGE_CURVE('',#386,#383,#436,.F.);
#296=EDGE_CURVE('',#387,#388,#437,.T.);
#297=EDGE_CURVE('',#387,#389,#438,.T.);
#298=EDGE_CURVE('',#389,#390,#439,.T.);
#299=EDGE_CURVE('',#390,#388,#440,.F.);
#300=EDGE_CURVE('',#391,#392,#441,.T.);
#301=EDGE_CURVE('',#392,#393,#442,.T.);
#302=EDGE_CURVE('',#393,#394,#443,.F.);
#303=EDGE_CURVE('',#394,#391,#444,.F.);
#304=EDGE_CURVE('',#395,#395,#43,.T.);
#305=EDGE_CURVE('',#396,#396,#44,.T.);
#306=EDGE_CURVE('',#397,#398,#445,.T.);
#307=EDGE_CURVE('',#397,#399,#446,.T.);
#308=EDGE_CURVE('',#399,#400,#447,.T.);
#309=EDGE_CURVE('',#398,#400,#448,.T.);
#310=EDGE_CURVE('',#401,#399,#449,.T.);
#311=EDGE_CURVE('',#401,#402,#450,.T.);
#312=EDGE_CURVE('',#402,#400,#451,.T.);
#313=EDGE_CURVE('',#403,#402,#452,.T.);
#314=EDGE_CURVE('',#403,#398,#453,.T.);
#315=EDGE_CURVE('',#404,#403,#454,.T.);
#316=EDGE_CURVE('',#404,#397,#455,.T.);
#317=EDGE_CURVE('',#404,#401,#456,.T.);
#318=EDGE_CURVE('',#366,#381,#45,.F.);
#319=EDGE_CURVE('',#380,#377,#46,.F.);
#320=EDGE_CURVE('',#376,#373,#47,.F.);
#321=EDGE_CURVE('',#372,#367,#48,.F.);
#322=EDGE_CURVE('',#352,#387,#49,.T.);
#323=EDGE_CURVE('',#388,#384,#50,.T.);
#324=EDGE_CURVE('',#383,#392,#51,.T.);
#325=EDGE_CURVE('',#391,#353,#52,.T.);
#326=EDGE_CURVE('',#374,#379,#53,.T.);
#327=EDGE_CURVE('',#374,#355,#54,.F.);
#328=EDGE_CURVE('',#354,#379,#55,.F.);
#329=EDGE_CURVE('',#378,#369,#56,.T.);
#330=EDGE_CURVE('',#356,#378,#57,.T.);
#331=EDGE_CURVE('',#375,#361,#58,.T.);
#332=EDGE_CURVE('',#370,#375,#59,.T.);
#333=EDGE_CURVE('',#357,#369,#60,.F.);
#334=EDGE_CURVE('',#370,#360,#61,.F.);
#335=EDGE_CURVE('',#358,#368,#62,.T.);
#336=EDGE_CURVE('',#371,#359,#63,.T.);
#337=EDGE_CURVE('',#371,#368,#64,.F.);
#338=EDGE_CURVE('',#393,#386,#65,.T.);
#339=EDGE_CURVE('',#393,#362,#66,.F.);
#340=EDGE_CURVE('',#362,#386,#67,.F.);
#341=EDGE_CURVE('',#385,#390,#68,.T.);
#342=EDGE_CURVE('',#363,#385,#69,.T.);
#343=EDGE_CURVE('',#394,#365,#70,.T.);
#344=EDGE_CURVE('',#350,#394,#71,.T.);
#345=EDGE_CURVE('',#363,#390,#72,.F.);
#346=EDGE_CURVE('',#350,#365,#73,.F.);
#347=EDGE_CURVE('',#364,#389,#74,.T.);
#348=EDGE_CURVE('',#351,#364,#75,.T.);
#349=EDGE_CURVE('',#351,#389,#76,.F.);
#350=VERTEX_POINT('',#971);
#351=VERTEX_POINT('',#972);
#352=VERTEX_POINT('',#974);
#353=VERTEX_POINT('',#976);
#354=VERTEX_POINT('',#979);
#355=VERTEX_POINT('',#980);
#356=VERTEX_POINT('',#982);
#357=VERTEX_POINT('',#984);
#358=VERTEX_POINT('',#986);
#359=VERTEX_POINT('',#988);
#360=VERTEX_POINT('',#990);
#361=VERTEX_POINT('',#992);
#362=VERTEX_POINT('',#996);
#363=VERTEX_POINT('',#997);
#364=VERTEX_POINT('',#999);
#365=VERTEX_POINT('',#1001);
#366=VERTEX_POINT('',#1005);
#367=VERTEX_POINT('',#1006);
#368=VERTEX_POINT('',#1008);
#369=VERTEX_POINT('',#1010);
#370=VERTEX_POINT('',#1014);
#371=VERTEX_POINT('',#1015);
#372=VERTEX_POINT('',#1017);
#373=VERTEX_POINT('',#1019);
#374=VERTEX_POINT('',#1023);
#375=VERTEX_POINT('',#1024);
#376=VERTEX_POINT('',#1026);
#377=VERTEX_POINT('',#1028);
#378=VERTEX_POINT('',#1032);
#379=VERTEX_POINT('',#1033);
#380=VERTEX_POINT('',#1035);
#381=VERTEX_POINT('',#1037);
#382=VERTEX_POINT('',#1041);
#383=VERTEX_POINT('',#1043);
#384=VERTEX_POINT('',#1044);
#385=VERTEX_POINT('',#1046);
#386=VERTEX_POINT('',#1048);
#387=VERTEX_POINT('',#1052);
#388=VERTEX_POINT('',#1053);
#389=VERTEX_POINT('',#1055);
#390=VERTEX_POINT('',#1057);
#391=VERTEX_POINT('',#1061);
#392=VERTEX_POINT('',#1062);
#393=VERTEX_POINT('',#1064);
#394=VERTEX_POINT('',#1066);
#395=VERTEX_POINT('',#1070);
#396=VERTEX_POINT('',#1072);
#397=VERTEX_POINT('',#1075);
#398=VERTEX_POINT('',#1076);
#399=VERTEX_POINT('',#1078);
#400=VERTEX_POINT('',#1080);
#401=VERTEX_POINT('',#1084);
#402=VERTEX_POINT('',#1086);
#403=VERTEX_POINT('',#1090);
#404=VERTEX_POINT('',#1094);
#405=LINE('',#970,#457);
#406=LINE('',#973,#458);
#407=LINE('',#975,#459);
#408=LINE('',#977,#460);
#409=LINE('',#981,#461);
#410=LINE('',#985,#462);
#411=LINE('',#989,#463);
#412=LINE('',#993,#464);
#413=LINE('',#995,#465);
#414=LINE('',#998,#466);
#415=LINE('',#1000,#467);
#416=LINE('',#1002,#468);
#417=LINE('',#1004,#469);
#418=LINE('',#1007,#470);
#419=LINE('',#1009,#471);
#420=LINE('',#1011,#472);
#421=LINE('',#1013,#473);
#422=LINE('',#1016,#474);
#423=LINE('',#1018,#475);
#424=LINE('',#1020,#476);
#425=LINE('',#1022,#477);
#426=LINE('',#1025,#478);
#427=LINE('',#1027,#479);
#428=LINE('',#1029,#480);
#429=LINE('',#1031,#481);
#430=LINE('',#1034,#482);
#431=LINE('',#1036,#483);
#432=LINE('',#1038,#484);
#433=LINE('',#1042,#485);
#434=LINE('',#1045,#486);
#435=LINE('',#1047,#487);
#436=LINE('',#1049,#488);
#437=LINE('',#1051,#489);
#438=LINE('',#1054,#490);
#439=LINE('',#1056,#491);
#440=LINE('',#1058,#492);
#441=LINE('',#1060,#493);
#442=LINE('',#1063,#494);
#443=LINE('',#1065,#495);
#444=LINE('',#1067,#496);
#445=LINE('',#1074,#497);
#446=LINE('',#1077,#498);
#447=LINE('',#1079,#499);
#448=LINE('',#1081,#500);
#449=LINE('',#1083,#501);
#450=LINE('',#1085,#502);
#451=LINE('',#1087,#503);
#452=LINE('',#1089,#504);
#453=LINE('',#1091,#505);
#454=LINE('',#1093,#506);
#455=LINE('',#1095,#507);
#456=LINE('',#1097,#508);
#457=VECTOR('',#758,1.);
#458=VECTOR('',#759,1.);
#459=VECTOR('',#760,1.);
#460=VECTOR('',#761,1.);
#461=VECTOR('',#764,1.);
#462=VECTOR('',#767,1.);
#463=VECTOR('',#770,1.);
#464=VECTOR('',#773,1.);
#465=VECTOR('',#776,1.);
#466=VECTOR('',#777,1.);
#467=VECTOR('',#778,1.);
#468=VECTOR('',#779,1.);
#469=VECTOR('',#782,1.);
#470=VECTOR('',#783,1.);
#471=VECTOR('',#784,1.);
#472=VECTOR('',#785,1.);
#473=VECTOR('',#788,1.);
#474=VECTOR('',#789,1.);
#475=VECTOR('',#790,1.);
#476=VECTOR('',#791,1.);
#477=VECTOR('',#794,1.);
#478=VECTOR('',#795,1.);
#479=VECTOR('',#796,1.);
#480=VECTOR('',#797,1.);
#481=VECTOR('',#800,1.);
#482=VECTOR('',#801,1.);
#483=VECTOR('',#802,1.);
#484=VECTOR('',#803,1.);
#485=VECTOR('',#808,1.);
#486=VECTOR('',#809,1.);
#487=VECTOR('',#810,1.);
#488=VECTOR('',#811,1.);
#489=VECTOR('',#814,1.);
#490=VECTOR('',#815,1.);
#491=VECTOR('',#816,1.);
#492=VECTOR('',#817,1.);
#493=VECTOR('',#820,1.);
#494=VECTOR('',#821,1.);
#495=VECTOR('',#822,1.);
#496=VECTOR('',#823,1.);
#497=VECTOR('',#832,1.);
#498=VECTOR('',#833,1.);
#499=VECTOR('',#834,1.);
#500=VECTOR('',#835,1.);
#501=VECTOR('',#838,1.);
#502=VECTOR('',#839,1.);
#503=VECTOR('',#840,1.);
#504=VECTOR('',#843,1.);
#505=VECTOR('',#844,1.);
#506=VECTOR('',#847,1.);
#507=VECTOR('',#848,1.);
#508=VECTOR('',#851,1.);
#509=EDGE_LOOP('',(#77,#78,#79,#80));
#510=EDGE_LOOP('',(#81,#82,#83,#84,#85,#86,#87,#88));
#511=EDGE_LOOP('',(#89,#90,#91,#92));
#512=EDGE_LOOP('',(#93,#94,#95,#96));
#513=EDGE_LOOP('',(#97,#98,#99,#100));
#514=EDGE_LOOP('',(#101,#102,#103,#104));
#515=EDGE_LOOP('',(#105,#106,#107,#108));
#516=EDGE_LOOP('',(#109));
#517=EDGE_LOOP('',(#110,#111,#112,#113));
#518=EDGE_LOOP('',(#114,#115,#116,#117));
#519=EDGE_LOOP('',(#118,#119,#120,#121));
#520=EDGE_LOOP('',(#122));
#521=EDGE_LOOP('',(#123));
#522=EDGE_LOOP('',(#124,#125,#126,#127));
#523=EDGE_LOOP('',(#128,#129,#130,#131));
#524=EDGE_LOOP('',(#132));
#525=EDGE_LOOP('',(#133,#134,#135,#136));
#526=EDGE_LOOP('',(#137,#138,#139,#140));
#527=EDGE_LOOP('',(#141,#142,#143,#144));
#528=EDGE_LOOP('',(#145,#146,#147,#148,#149,#150,#151,#152));
#529=EDGE_LOOP('',(#153,#154,#155,#156));
#530=EDGE_LOOP('',(#157,#158,#159,#160,#161,#162,#163,#164));
#531=EDGE_LOOP('',(#165,#166,#167,#168));
#532=EDGE_LOOP('',(#169,#170,#171,#172));
#533=EDGE_LOOP('',(#173,#174,#175,#176));
#534=EDGE_LOOP('',(#177,#178,#179,#180));
#535=EDGE_LOOP('',(#181,#182,#183,#184));
#536=EDGE_LOOP('',(#185,#186,#187,#188));
#537=EDGE_LOOP('',(#189,#190,#191,#192));
#538=EDGE_LOOP('',(#193,#194,#195,#196));
#539=EDGE_LOOP('',(#197,#198,#199,#200));
#540=EDGE_LOOP('',(#201,#202,#203,#204));
#541=EDGE_LOOP('',(#205,#206,#207,#208));
#542=EDGE_LOOP('',(#209,#210,#211,#212));
#543=EDGE_LOOP('',(#213,#214,#215,#216));
#544=EDGE_LOOP('',(#217,#218,#219));
#545=EDGE_LOOP('',(#220,#221,#222,#223));
#546=EDGE_LOOP('',(#224,#225,#226,#227));
#547=EDGE_LOOP('',(#228,#229,#230,#231));
#548=EDGE_LOOP('',(#232,#233,#234,#235));
#549=EDGE_LOOP('',(#236,#237,#238));
#550=EDGE_LOOP('',(#239,#240,#241));
#551=EDGE_LOOP('',(#242,#243,#244,#245));
#552=EDGE_LOOP('',(#246,#247,#248,#249));
#553=EDGE_LOOP('',(#250,#251,#252));
#554=EDGE_LOOP('',(#253,#254,#255,#256));
#555=EDGE_LOOP('',(#257));
#556=EDGE_LOOP('',(#258));
#557=FACE_BOUND('',#509,.T.);
#558=FACE_BOUND('',#510,.T.);
#559=FACE_BOUND('',#511,.T.);
#560=FACE_BOUND('',#512,.T.);
#561=FACE_BOUND('',#513,.T.);
#562=FACE_BOUND('',#514,.T.);
#563=FACE_BOUND('',#515,.T.);
#564=FACE_BOUND('',#516,.T.);
#565=FACE_BOUND('',#517,.T.);
#566=FACE_BOUND('',#518,.T.);
#567=FACE_BOUND('',#519,.T.);
#568=FACE_BOUND('',#520,.T.);
#569=FACE_BOUND('',#521,.T.);
#570=FACE_BOUND('',#522,.T.);
#571=FACE_BOUND('',#523,.T.);
#572=FACE_BOUND('',#524,.T.);
#573=FACE_BOUND('',#525,.T.);
#574=FACE_BOUND('',#526,.T.);
#575=FACE_BOUND('',#527,.T.);
#576=FACE_BOUND('',#528,.T.);
#577=FACE_BOUND('',#529,.T.);
#578=FACE_BOUND('',#530,.T.);
#579=FACE_BOUND('',#531,.T.);
#580=FACE_BOUND('',#532,.T.);
#581=FACE_BOUND('',#533,.T.);
#582=FACE_BOUND('',#534,.T.);
#583=FACE_BOUND('',#535,.T.);
#584=FACE_BOUND('',#536,.T.);
#585=FACE_BOUND('',#537,.T.);
#586=FACE_BOUND('',#538,.T.);
#587=FACE_BOUND('',#539,.T.);
#588=FACE_BOUND('',#540,.T.);
#589=FACE_BOUND('',#541,.T.);
#590=FACE_BOUND('',#542,.T.);
#591=FACE_BOUND('',#543,.T.);
#592=FACE_BOUND('',#544,.T.);
#593=FACE_BOUND('',#545,.T.);
#594=FACE_BOUND('',#546,.T.);
#595=FACE_BOUND('',#547,.T.);
#596=FACE_BOUND('',#548,.T.);
#597=FACE_BOUND('',#549,.T.);
#598=FACE_BOUND('',#550,.T.);
#599=FACE_BOUND('',#551,.T.);
#600=FACE_BOUND('',#552,.T.);
#601=FACE_BOUND('',#553,.T.);
#602=FACE_BOUND('',#554,.T.);
#603=FACE_BOUND('',#555,.T.);
#604=FACE_BOUND('',#556,.T.);
#605=PLANE('',#674);
#606=PLANE('',#679);
#607=PLANE('',#680);
#608=PLANE('',#681);
#609=PLANE('',#682);
#610=PLANE('',#683);
#611=PLANE('',#684);
#612=PLANE('',#686);
#613=PLANE('',#687);
#614=PLANE('',#691);
#615=PLANE('',#692);
#616=PLANE('',#693);
#617=PLANE('',#694);
#618=PLANE('',#695);
#619=PLANE('',#700);
#620=ADVANCED_FACE('',(#557,#558),#605,.F.);
#621=ADVANCED_FACE('',(#559),#606,.F.);
#622=ADVANCED_FACE('',(#560),#607,.F.);
#623=ADVANCED_FACE('',(#561),#608,.F.);
#624=ADVANCED_FACE('',(#562),#609,.T.);
#625=ADVANCED_FACE('',(#563),#610,.T.);
#626=ADVANCED_FACE('',(#564,#565),#611,.T.);
#627=ADVANCED_FACE('',(#566),#612,.F.);
#628=ADVANCED_FACE('',(#567),#613,.T.);
#629=ADVANCED_FACE('',(#568,#569),#21,.F.);
#630=ADVANCED_FACE('',(#570),#614,.T.);
#631=ADVANCED_FACE('',(#571),#615,.T.);
#632=ADVANCED_FACE('',(#572,#573),#616,.F.);
#633=ADVANCED_FACE('',(#574),#617,.F.);
#634=ADVANCED_FACE('',(#575,#576),#618,.T.);
#635=ADVANCED_FACE('',(#577,#578),#619,.T.);
#636=ADVANCED_FACE('',(#579),#22,.F.);
#637=ADVANCED_FACE('',(#580),#16,.T.);
#638=ADVANCED_FACE('',(#581),#23,.F.);
#639=ADVANCED_FACE('',(#582),#24,.T.);
#640=ADVANCED_FACE('',(#583),#25,.T.);
#641=ADVANCED_FACE('',(#584),#26,.F.);
#642=ADVANCED_FACE('',(#585),#17,.T.);
#643=ADVANCED_FACE('',(#586),#18,.T.);
#644=ADVANCED_FACE('',(#587),#27,.T.);
#645=ADVANCED_FACE('',(#588),#28,.T.);
#646=ADVANCED_FACE('',(#589),#19,.T.);
#647=ADVANCED_FACE('',(#590),#29,.F.);
#648=ADVANCED_FACE('',(#591),#30,.T.);
#649=ADVANCED_FACE('',(#592),#12,.T.);
#650=ADVANCED_FACE('',(#593),#31,.T.);
#651=ADVANCED_FACE('',(#594),#32,.T.);
#652=ADVANCED_FACE('',(#595),#33,.T.);
#653=ADVANCED_FACE('',(#596),#34,.T.);
#654=ADVANCED_FACE('',(#597),#13,.T.);
#655=ADVANCED_FACE('',(#598),#14,.T.);
#656=ADVANCED_FACE('',(#599),#35,.T.);
#657=ADVANCED_FACE('',(#600),#36,.T.);
#658=ADVANCED_FACE('',(#601),#15,.T.);
#659=ADVANCED_FACE('',(#602),#37,.T.);
#660=ADVANCED_FACE('',(#603,#604),#20,.T.);
#661=CLOSED_SHELL('',(#620,#621,#622,#623,#624,#625,#626,#627,#628,#629,
#630,#631,#632,#633,#634,#635,#636,#637,#638,#639,#640,#641,#642,#643,#644,
#645,#646,#647,#648,#649,#650,#651,#652,#653,#654,#655,#656,#657,#658,#659,
#660));
#662=STYLED_ITEM('',(#663),#670);
#663=PRESENTATION_STYLE_ASSIGNMENT((#664));
#664=SURFACE_STYLE_USAGE(.BOTH.,#665);
#665=SURFACE_SIDE_STYLE('',(#666));
#666=SURFACE_STYLE_FILL_AREA(#667);
#667=FILL_AREA_STYLE('',(#668));
#668=FILL_AREA_STYLE_COLOUR('',#669);
#669=COLOUR_RGB('',0.615686274509804,0.811764705882353,0.929411764705882);
#670=MANIFOLD_SOLID_BREP('bottom',#661);
#671=SHAPE_DEFINITION_REPRESENTATION(#1162,#672);
#672=SHAPE_REPRESENTATION('bottom',(#673),#1157);
#673=AXIS2_PLACEMENT_3D('',#968,#754,#755);
#674=AXIS2_PLACEMENT_3D('',#969,#756,#757);
#675=AXIS2_PLACEMENT_3D('',#978,#762,#763);
#676=AXIS2_PLACEMENT_3D('',#983,#765,#766);
#677=AXIS2_PLACEMENT_3D('',#987,#768,#769);
#678=AXIS2_PLACEMENT_3D('',#991,#771,#772);
#679=AXIS2_PLACEMENT_3D('',#994,#774,#775);
#680=AXIS2_PLACEMENT_3D('',#1003,#780,#781);
#681=AXIS2_PLACEMENT_3D('',#1012,#786,#787);
#682=AXIS2_PLACEMENT_3D('',#1021,#792,#793);
#683=AXIS2_PLACEMENT_3D('',#1030,#798,#799);
#684=AXIS2_PLACEMENT_3D('',#1039,#804,#805);
#685=AXIS2_PLACEMENT_3D('',#1040,#806,#807);
#686=AXIS2_PLACEMENT_3D('',#1050,#812,#813);
#687=AXIS2_PLACEMENT_3D('',#1059,#818,#819);
#688=AXIS2_PLACEMENT_3D('',#1068,#824,#825);
#689=AXIS2_PLACEMENT_3D('',#1069,#826,#827);
#690=AXIS2_PLACEMENT_3D('',#1071,#828,#829);
#691=AXIS2_PLACEMENT_3D('',#1073,#830,#831);
#692=AXIS2_PLACEMENT_3D('',#1082,#836,#837);
#693=AXIS2_PLACEMENT_3D('',#1088,#841,#842);
#694=AXIS2_PLACEMENT_3D('',#1092,#845,#846);
#695=AXIS2_PLACEMENT_3D('',#1096,#849,#850);
#696=AXIS2_PLACEMENT_3D('',#1098,#852,#853);
#697=AXIS2_PLACEMENT_3D('',#1099,#854,#855);
#698=AXIS2_PLACEMENT_3D('',#1100,#856,#857);
#699=AXIS2_PLACEMENT_3D('',#1101,#858,#859);
#700=AXIS2_PLACEMENT_3D('',#1102,#860,#861);
#701=AXIS2_PLACEMENT_3D('',#1103,#862,#863);
#702=AXIS2_PLACEMENT_3D('',#1104,#864,#865);
#703=AXIS2_PLACEMENT_3D('',#1105,#866,#867);
#704=AXIS2_PLACEMENT_3D('',#1106,#868,#869);
#705=AXIS2_PLACEMENT_3D('',#1107,#870,#871);
#706=AXIS2_PLACEMENT_3D('',#1108,#872,#873);
#707=AXIS2_PLACEMENT_3D('',#1109,#874,#875);
#708=AXIS2_PLACEMENT_3D('',#1110,#876,#877);
#709=AXIS2_PLACEMENT_3D('',#1111,#878,#879);
#710=AXIS2_PLACEMENT_3D('',#1112,#880,#881);
#711=AXIS2_PLACEMENT_3D('',#1113,#882,#883);
#712=AXIS2_PLACEMENT_3D('',#1114,#884,#885);
#713=AXIS2_PLACEMENT_3D('',#1115,#886,#887);
#714=AXIS2_PLACEMENT_3D('',#1116,#888,#889);
#715=AXIS2_PLACEMENT_3D('',#1117,#890,#891);
#716=AXIS2_PLACEMENT_3D('',#1118,#892,#893);
#717=AXIS2_PLACEMENT_3D('',#1119,#894,#895);
#718=AXIS2_PLACEMENT_3D('',#1120,#896,#897);
#719=AXIS2_PLACEMENT_3D('',#1121,#898,#899);
#720=AXIS2_PLACEMENT_3D('',#1122,#900,#901);
#721=AXIS2_PLACEMENT_3D('',#1123,#902,#903);
#722=AXIS2_PLACEMENT_3D('',#1124,#904,#905);
#723=AXIS2_PLACEMENT_3D('',#1125,#906,#907);
#724=AXIS2_PLACEMENT_3D('',#1126,#908,#909);
#725=AXIS2_PLACEMENT_3D('',#1127,#910,#911);
#726=AXIS2_PLACEMENT_3D('',#1128,#912,#913);
#727=AXIS2_PLACEMENT_3D('',#1129,#914,#915);
#728=AXIS2_PLACEMENT_3D('',#1130,#916,#917);
#729=AXIS2_PLACEMENT_3D('',#1131,#918,#919);
#730=AXIS2_PLACEMENT_3D('',#1132,#920,#921);
#731=AXIS2_PLACEMENT_3D('',#1133,#922,#923);
#732=AXIS2_PLACEMENT_3D('',#1134,#924,#925);
#733=AXIS2_PLACEMENT_3D('',#1135,#926,#927);
#734=AXIS2_PLACEMENT_3D('',#1136,#928,#929);
#735=AXIS2_PLACEMENT_3D('',#1137,#930,#931);
#736=AXIS2_PLACEMENT_3D('',#1138,#932,#933);
#737=AXIS2_PLACEMENT_3D('',#1139,#934,#935);
#738=AXIS2_PLACEMENT_3D('',#1140,#936,#937);
#739=AXIS2_PLACEMENT_3D('',#1141,#938,#939);
#740=AXIS2_PLACEMENT_3D('',#1142,#940,#941);
#741=AXIS2_PLACEMENT_3D('',#1143,#942,#943);
#742=AXIS2_PLACEMENT_3D('',#1144,#944,#945);
#743=AXIS2_PLACEMENT_3D('',#1145,#946,#947);
#744=AXIS2_PLACEMENT_3D('',#1146,#948,#949);
#745=AXIS2_PLACEMENT_3D('',#1147,#950,#951);
#746=AXIS2_PLACEMENT_3D('',#1148,#952,#953);
#747=AXIS2_PLACEMENT_3D('',#1149,#954,#955);
#748=AXIS2_PLACEMENT_3D('',#1150,#956,#957);
#749=AXIS2_PLACEMENT_3D('',#1151,#958,#959);
#750=AXIS2_PLACEMENT_3D('',#1152,#960,#961);
#751=AXIS2_PLACEMENT_3D('',#1153,#962,#963);
#752=AXIS2_PLACEMENT_3D('',#1154,#964,#965);
#753=AXIS2_PLACEMENT_3D('',#1155,#966,#967);
#754=DIRECTION('',(0.,0.,1.));
#755=DIRECTION('',(1.,0.,0.));
#756=DIRECTION('',(1.,0.,-2.00160401074247E-16));
#757=DIRECTION('',(-2.00160401074247E-16,0.,-1.));
#758=DIRECTION('',(-2.00160401074247E-16,0.,-1.));
#759=DIRECTION('',(0.,1.,0.));
#760=DIRECTION('',(-2.00160401074247E-16,0.,-1.));
#761=DIRECTION('',(0.,1.,0.));
#762=DIRECTION('',(1.,0.,-2.00160401074247E-16));
#763=DIRECTION('',(-2.00160401074247E-16,0.,-1.));
#764=DIRECTION('',(2.00160401074247E-16,0.,1.));
#765=DIRECTION('',(1.,0.,-2.00160401074247E-16));
#766=DIRECTION('',(-2.00160401074247E-16,0.,-1.));
#767=DIRECTION('',(0.,1.,0.));
#768=DIRECTION('',(1.,0.,-2.00160401074247E-16));
#769=DIRECTION('',(-2.00160401074247E-16,0.,-1.));
#770=DIRECTION('',(2.00160401074247E-16,2.77555756156289E-16,1.));
#771=DIRECTION('',(1.,0.,-2.00160401074247E-16));
#772=DIRECTION('',(-2.00160401074247E-16,0.,-1.));
#773=DIRECTION('',(0.,1.,0.));
#774=DIRECTION('',(0.,-1.,0.));
#775=DIRECTION('',(1.,0.,0.));
#776=DIRECTION('',(-2.00160401074247E-16,0.,-1.));
#777=DIRECTION('',(1.,0.,0.));
#778=DIRECTION('',(-2.00160401074247E-16,0.,-1.));
#779=DIRECTION('',(1.,0.,0.));
#780=DIRECTION('',(2.00160401074247E-16,0.,1.));
#781=DIRECTION('',(1.,0.,-2.00160401074247E-16));
#782=DIRECTION('',(0.,-1.,0.));
#783=DIRECTION('',(-1.,0.,2.00160401074247E-16));
#784=DIRECTION('',(0.,1.,0.));
#785=DIRECTION('',(-1.,0.,2.00160401074247E-16));
#786=DIRECTION('',(5.55556714727087E-32,-1.,2.77555756156289E-16));
#787=DIRECTION('',(0.,-2.77555756156289E-16,-1.));
#788=DIRECTION('',(2.00160401074247E-16,2.77555756156289E-16,1.));
#789=DIRECTION('',(-1.,0.,2.00160401074247E-16));
#790=DIRECTION('',(-2.00160401074247E-16,-2.77555756156289E-16,-1.));
#791=DIRECTION('',(-1.,0.,2.00160401074247E-16));
#792=DIRECTION('',(2.00160401074247E-16,0.,1.));
#793=DIRECTION('',(1.,0.,-2.00160401074247E-16));
#794=DIRECTION('',(0.,1.,0.));
#795=DIRECTION('',(-1.,0.,2.00160401074247E-16));
#796=DIRECTION('',(0.,-1.,0.));
#797=DIRECTION('',(-1.,0.,2.00160401074247E-16));
#798=DIRECTION('',(0.,-1.,0.));
#799=DIRECTION('',(0.,0.,-1.));
#800=DIRECTION('',(2.00160401074247E-16,0.,1.));
#801=DIRECTION('',(-1.,0.,2.00160401074247E-16));
#802=DIRECTION('',(-2.00160401074247E-16,0.,-1.));
#803=DIRECTION('',(-1.,0.,2.00160401074247E-16));
#804=DIRECTION('',(1.,0.,-2.00160401074247E-16));
#805=DIRECTION('',(-2.00160401074247E-16,0.,-1.));
#806=DIRECTION('',(1.,0.,-2.00160401074247E-16));
#807=DIRECTION('',(-2.00160401074247E-16,0.,-1.));
#808=DIRECTION('',(-2.00160401074247E-16,0.,-1.));
#809=DIRECTION('',(0.,1.,0.));
#810=DIRECTION('',(-2.00160401074247E-16,0.,-1.));
#811=DIRECTION('',(0.,1.,0.));
#812=DIRECTION('',(0.,0.,1.));
#813=DIRECTION('',(1.,0.,0.));
#814=DIRECTION('',(1.,0.,0.));
#815=DIRECTION('',(0.,1.,0.));
#816=DIRECTION('',(1.,0.,0.));
#817=DIRECTION('',(0.,1.,0.));
#818=DIRECTION('',(0.,0.,1.));
#819=DIRECTION('',(1.,0.,0.));
#820=DIRECTION('',(1.,0.,0.));
#821=DIRECTION('',(0.,1.,0.));
#822=DIRECTION('',(1.,0.,0.));
#823=DIRECTION('',(0.,1.,0.));
#824=DIRECTION('',(1.,0.,-2.00160401074247E-16));
#825=DIRECTION('',(-2.00160401074247E-16,0.,-1.));
#826=DIRECTION('',(1.,0.,-2.00160401074247E-16));
#827=DIRECTION('',(-2.00160401074247E-16,0.,-1.));
#828=DIRECTION('',(1.,0.,-2.00160401074247E-16));
#829=DIRECTION('',(-2.00160401074247E-16,0.,-1.));
#830=DIRECTION('',(0.,-1.,0.));
#831=DIRECTION('',(1.,0.,0.));
#832=DIRECTION('',(1.,0.,0.));
#833=DIRECTION('',(-2.00160401074247E-16,0.,-1.));
#834=DIRECTION('',(1.,0.,0.));
#835=DIRECTION('',(-2.00160401074247E-16,0.,-1.));
#836=DIRECTION('',(0.,0.,1.));
#837=DIRECTION('',(1.,0.,0.));
#838=DIRECTION('',(0.,1.,0.));
#839=DIRECTION('',(1.,0.,0.));
#840=DIRECTION('',(0.,1.,0.));
#841=DIRECTION('',(1.,0.,-2.00160401074247E-16));
#842=DIRECTION('',(-2.00160401074247E-16,0.,-1.));
#843=DIRECTION('',(-2.00160401074247E-16,0.,-1.));
#844=DIRECTION('',(0.,1.,0.));
#845=DIRECTION('',(0.,0.,1.));
#846=DIRECTION('',(1.,0.,0.));
#847=DIRECTION('',(1.,0.,0.));
#848=DIRECTION('',(0.,1.,0.));
#849=DIRECTION('',(1.,0.,-2.00160401074247E-16));
#850=DIRECTION('',(-2.00160401074247E-16,0.,-1.));
#851=DIRECTION('',(-2.00160401074247E-16,0.,-1.));
#852=DIRECTION('',(1.,0.,-2.00160401074247E-16));
#853=DIRECTION('',(-2.00160401074247E-16,0.,-1.));
#854=DIRECTION('',(1.,0.,-2.00160401074247E-16));
#855=DIRECTION('',(-2.00160401074247E-16,0.,-1.));
#856=DIRECTION('',(1.,0.,-2.00160401074247E-16));
#857=DIRECTION('',(-2.00160401074247E-16,0.,-1.));
#858=DIRECTION('',(1.,0.,-2.00160401074247E-16));
#859=DIRECTION('',(-2.00160401074247E-16,0.,-1.));
#860=DIRECTION('',(0.,-1.,0.));
#861=DIRECTION('',(1.,0.,0.));
#862=DIRECTION('',(0.,-1.,0.));
#863=DIRECTION('',(0.,0.,-1.));
#864=DIRECTION('',(0.,-1.,0.));
#865=DIRECTION('',(0.,0.,-1.));
#866=DIRECTION('',(0.,-1.,0.));
#867=DIRECTION('',(0.,0.,-1.));
#868=DIRECTION('',(0.,-1.,0.));
#869=DIRECTION('',(0.,0.,-1.));
#870=DIRECTION('',(1.,0.,-2.00160401074247E-16));
#871=DIRECTION('',(-2.00160401074247E-16,0.,-1.));
#872=DIRECTION('',(1.,0.,-2.00160401074247E-16));
#873=DIRECTION('',(-2.00160401074247E-16,0.,-1.));
#874=DIRECTION('',(1.,0.,-2.00160401074247E-16));
#875=DIRECTION('',(-2.00160401074247E-16,0.,-1.));
#876=DIRECTION('',(0.,1.,0.));
#877=DIRECTION('',(0.,0.,1.));
#878=DIRECTION('',(0.,0.,-1.));
#879=DIRECTION('',(-1.,0.,0.));
#880=DIRECTION('',(-1.,0.,2.00160401074247E-16));
#881=DIRECTION('',(2.00160401074247E-16,0.,1.));
#882=DIRECTION('',(1.,0.,-2.00160401074247E-16));
#883=DIRECTION('',(-2.00160401074247E-16,0.,-1.));
#884=DIRECTION('',(-2.00160401074247E-16,0.,-1.));
#885=DIRECTION('',(-1.,0.,2.00160401074247E-16));
#886=DIRECTION('',(0.,0.,1.));
#887=DIRECTION('',(1.,0.,0.));
#888=DIRECTION('',(0.,-1.,0.));
#889=DIRECTION('',(0.,0.,-1.));
#890=DIRECTION('',(0.,-1.,0.));
#891=DIRECTION('',(0.,0.,-1.));
#892=DIRECTION('',(-1.,0.,2.00160401074247E-16));
#893=DIRECTION('',(2.00160401074247E-16,0.,1.));
#894=DIRECTION('',(1.,0.,-2.00160401074247E-16));
#895=DIRECTION('',(-2.00160401074247E-16,0.,-1.));
#896=DIRECTION('',(1.,0.,-2.00160401074247E-16));
#897=DIRECTION('',(-2.00160401074247E-16,0.,-1.));
#898=DIRECTION('',(0.,1.,0.));
#899=DIRECTION('',(0.,0.,1.));
#900=DIRECTION('',(1.,0.,-2.00160401074247E-16));
#901=DIRECTION('',(-2.00160401074247E-16,0.,-1.));
#902=DIRECTION('',(0.,0.,-1.));
#903=DIRECTION('',(-1.,0.,0.));
#904=DIRECTION('',(0.,1.,0.));
#905=DIRECTION('',(0.,0.,1.));
#906=DIRECTION('',(0.,-1.,0.));
#907=DIRECTION('',(0.,0.,-1.));
#908=DIRECTION('',(2.00160401074247E-16,2.77555756156289E-16,1.));
#909=DIRECTION('',(0.,-1.,2.77555756156289E-16));
#910=DIRECTION('',(0.,0.,1.));
#911=DIRECTION('',(1.,0.,0.));
#912=DIRECTION('',(1.,0.,-2.00160401074247E-16));
#913=DIRECTION('',(-2.00160401074247E-16,0.,-1.));
#914=DIRECTION('',(1.,0.,-2.00160401074247E-16));
#915=DIRECTION('',(-2.00160401074247E-16,0.,-1.));
#916=DIRECTION('',(1.,0.,-2.00160401074247E-16));
#917=DIRECTION('',(-2.00160401074247E-16,0.,-1.));
#918=DIRECTION('',(0.,1.,0.));
#919=DIRECTION('',(0.,0.,1.));
#920=DIRECTION('',(0.,1.,0.));
#921=DIRECTION('',(0.,0.,1.));
#922=DIRECTION('',(1.,0.,0.));
#923=DIRECTION('',(0.,0.,-1.));
#924=DIRECTION('',(1.,0.,0.));
#925=DIRECTION('',(0.,0.,-1.));
#926=DIRECTION('',(0.,0.,1.));
#927=DIRECTION('',(1.,0.,0.));
#928=DIRECTION('',(0.,-1.,0.));
#929=DIRECTION('',(0.,0.,-1.));
#930=DIRECTION('',(0.,1.,-8.67361737988403E-16));
#931=DIRECTION('',(0.,8.67361737988403E-16,1.));
#932=DIRECTION('',(2.00160401074247E-16,0.,1.));
#933=DIRECTION('',(1.,0.,-2.00160401074247E-16));
#934=DIRECTION('',(0.,0.,-1.));
#935=DIRECTION('',(-1.,0.,0.));
#936=DIRECTION('',(-1.,0.,0.));
#937=DIRECTION('',(0.,0.,1.));
#938=DIRECTION('',(-1.,6.93889390390723E-15,0.));
#939=DIRECTION('',(-6.93889390390723E-15,-1.,0.));
#940=DIRECTION('',(0.,-1.,0.));
#941=DIRECTION('',(0.,0.,-1.));
#942=DIRECTION('',(0.,1.,-8.67361737988403E-16));
#943=DIRECTION('',(0.,8.67361737988403E-16,1.));
#944=DIRECTION('',(1.,0.,0.));
#945=DIRECTION('',(0.,0.,-1.));
#946=DIRECTION('',(1.,6.93889390390722E-15,0.));
#947=DIRECTION('',(-6.93889390390722E-15,1.,0.));
#948=DIRECTION('',(0.,0.,1.));
#949=DIRECTION('',(1.,0.,0.));
#950=DIRECTION('',(0.,0.,1.));
#951=DIRECTION('',(1.,0.,0.));
#952=DIRECTION('',(1.,0.,0.));
#953=DIRECTION('',(0.,0.,-1.));
#954=DIRECTION('',(-1.,0.,0.));
#955=DIRECTION('',(0.,0.,1.));
#956=DIRECTION('',(-2.00160401074247E-16,0.,-1.));
#957=DIRECTION('',(-1.,0.,2.00160401074247E-16));
#958=DIRECTION('',(0.,0.,-1.));
#959=DIRECTION('',(-1.,0.,0.));
#960=DIRECTION('',(0.,1.,0.));
#961=DIRECTION('',(0.,0.,1.));
#962=DIRECTION('',(0.,1.,0.));
#963=DIRECTION('',(0.,0.,1.));
#964=DIRECTION('',(0.,1.,0.));
#965=DIRECTION('',(0.,0.,1.));
#966=DIRECTION('',(1.,0.,-2.00160401074247E-16));
#967=DIRECTION('',(-2.00160401074247E-16,0.,-1.));
#968=CARTESIAN_POINT('',(0.,0.,0.));
#969=CARTESIAN_POINT('',(-0.037,-0.02,0.));
#970=CARTESIAN_POINT('',(-0.037,-0.001,0.));
#971=CARTESIAN_POINT('',(-0.037,-0.001,0.051));
#972=CARTESIAN_POINT('',(-0.037,-0.001,-0.051));
#973=CARTESIAN_POINT('',(-0.037,-0.02,-0.051));
#974=CARTESIAN_POINT('',(-0.037,-0.02,-0.051));
#975=CARTESIAN_POINT('',(-0.037,-0.02,0.));
#976=CARTESIAN_POINT('',(-0.037,-0.02,0.051));
#977=CARTESIAN_POINT('',(-0.037,0.,0.051));
#978=CARTESIAN_POINT('',(-0.037,-0.0043468709785243,-0.0422110227644444));
#979=CARTESIAN_POINT('',(-0.037,-0.0023468709785243,-0.0422110227644444));
#980=CARTESIAN_POINT('',(-0.037,-0.0043468709785243,-0.0442110227644444));
#981=CARTESIAN_POINT('',(-0.037,-0.0023468709785243,-0.0307110227644443));
#982=CARTESIAN_POINT('',(-0.037,-0.0023468709785243,-0.0317110227644444));
#983=CARTESIAN_POINT('',(-0.037,-0.0043468709785243,-0.0317110227644444));
#984=CARTESIAN_POINT('',(-0.037,-0.0043468709785243,-0.0297110227644443));
#985=CARTESIAN_POINT('',(-0.037,-0.02,-0.0297110227644443));
#986=CARTESIAN_POINT('',(-0.037,-0.0088468709785243,-0.0297110227644443));
#987=CARTESIAN_POINT('',(-0.037,-0.0088468709785243,-0.0317110227644444));
#988=CARTESIAN_POINT('',(-0.037,-0.0108468709785243,-0.0317110227644444));
#989=CARTESIAN_POINT('',(-0.037,-0.0108468709785243,-2.54050364675176E-18));
#990=CARTESIAN_POINT('',(-0.037,-0.0108468709785243,-0.0422110227644444));
#991=CARTESIAN_POINT('',(-0.037,-0.0088468709785243,-0.0422110227644444));
#992=CARTESIAN_POINT('',(-0.037,-0.0088468709785243,-0.0442110227644444));
#993=CARTESIAN_POINT('',(-0.037,-0.0033468709785243,-0.0442110227644444));
#994=CARTESIAN_POINT('',(0.,0.,0.));
#995=CARTESIAN_POINT('',(0.036,0.,-0.052));
#996=CARTESIAN_POINT('',(0.036,0.,0.051));
#997=CARTESIAN_POINT('',(0.036,0.,-0.051));
#998=CARTESIAN_POINT('',(0.,0.,-0.051));
#999=CARTESIAN_POINT('',(-0.036,0.,-0.051));
#1000=CARTESIAN_POINT('',(-0.036,0.,7.20577443867289E-18));
#1001=CARTESIAN_POINT('',(-0.036,0.,0.051));
#1002=CARTESIAN_POINT('',(0.037,0.,0.051));
#1003=CARTESIAN_POINT('',(-0.012,-0.0065968709785243,-0.0307110227644443));
#1004=CARTESIAN_POINT('',(-0.034,-0.02,-0.0307110227644443));
#1005=CARTESIAN_POINT('',(-0.034,-0.00434687097852431,-0.0307110227644443));
#1006=CARTESIAN_POINT('',(-0.034,-0.0088468709785243,-0.0307110227644443));
#1007=CARTESIAN_POINT('',(-0.037,-0.0088468709785243,-0.0307110227644443));
#1008=CARTESIAN_POINT('',(-0.036,-0.0088468709785243,-0.0307110227644443));
#1009=CARTESIAN_POINT('',(-0.036,-0.0065968709785243,-0.0307110227644443));
#1010=CARTESIAN_POINT('',(-0.036,-0.0043468709785243,-0.0307110227644443));
#1011=CARTESIAN_POINT('',(-0.012,-0.0043468709785243,-0.0307110227644443));
#1012=CARTESIAN_POINT('',(-0.012,-0.0098468709785243,-0.0369610227644444));
#1013=CARTESIAN_POINT('',(-0.036,-0.0098468709785243,-0.0369610227644444));
#1014=CARTESIAN_POINT('',(-0.036,-0.0098468709785243,-0.0422110227644444));
#1015=CARTESIAN_POINT('',(-0.036,-0.0098468709785243,-0.0317110227644444));
#1016=CARTESIAN_POINT('',(-0.034,-0.0098468709785243,-0.0317110227644444));
#1017=CARTESIAN_POINT('',(-0.034,-0.0098468709785243,-0.0317110227644444));
#1018=CARTESIAN_POINT('',(-0.034,-0.00984687097852429,-3.41854060613079E-18));
#1019=CARTESIAN_POINT('',(-0.034,-0.0098468709785243,-0.0422110227644444));
#1020=CARTESIAN_POINT('',(-0.012,-0.0098468709785243,-0.0422110227644444));
#1021=CARTESIAN_POINT('',(-0.012,-0.0065968709785243,-0.0432110227644443));
#1022=CARTESIAN_POINT('',(-0.036,-0.0098468709785243,-0.0432110227644443));
#1023=CARTESIAN_POINT('',(-0.036,-0.0043468709785243,-0.0432110227644443));
#1024=CARTESIAN_POINT('',(-0.036,-0.0088468709785243,-0.0432110227644443));
#1025=CARTESIAN_POINT('',(-0.012,-0.0088468709785243,-0.0432110227644443));
#1026=CARTESIAN_POINT('',(-0.034,-0.0088468709785243,-0.0432110227644443));
#1027=CARTESIAN_POINT('',(-0.034,-0.02,-0.0432110227644443));
#1028=CARTESIAN_POINT('',(-0.034,-0.00434687097852431,-0.0432110227644443));
#1029=CARTESIAN_POINT('',(-0.037,-0.0043468709785243,-0.0432110227644443));
#1030=CARTESIAN_POINT('',(-0.012,-0.0033468709785243,-0.0369610227644444));
#1031=CARTESIAN_POINT('',(-0.036,-0.0033468709785243,-0.0432110227644443));
#1032=CARTESIAN_POINT('',(-0.036,-0.0033468709785243,-0.0317110227644444));
#1033=CARTESIAN_POINT('',(-0.036,-0.0033468709785243,-0.0422110227644444));
#1034=CARTESIAN_POINT('',(-0.034,-0.0033468709785243,-0.0422110227644444));
#1035=CARTESIAN_POINT('',(-0.034,-0.0033468709785243,-0.0422110227644444));
#1036=CARTESIAN_POINT('',(-0.034,-0.0033468709785243,-6.00481203222741E-19));
#1037=CARTESIAN_POINT('',(-0.034,-0.0033468709785243,-0.0317110227644444));
#1038=CARTESIAN_POINT('',(-0.012,-0.0033468709785243,-0.0317110227644444));
#1039=CARTESIAN_POINT('',(0.037,-0.02,0.));
#1040=CARTESIAN_POINT('',(0.037,-0.0105,-0.0389));
#1041=CARTESIAN_POINT('',(0.037,-0.0105,-0.0444573997538173));
#1042=CARTESIAN_POINT('',(0.037,-0.02,0.));
#1043=CARTESIAN_POINT('',(0.037,-0.02,0.051));
#1044=CARTESIAN_POINT('',(0.037,-0.02,-0.051));
#1045=CARTESIAN_POINT('',(0.037,0.,-0.051));
#1046=CARTESIAN_POINT('',(0.037,-0.001,-0.051));
#1047=CARTESIAN_POINT('',(0.037,-0.001,0.052));
#1048=CARTESIAN_POINT('',(0.037,-0.001,0.051));
#1049=CARTESIAN_POINT('',(0.037,-0.02,0.051));
#1050=CARTESIAN_POINT('',(-1.38777878078145E-17,-0.02,-0.052));
#1051=CARTESIAN_POINT('',(-1.38777878078145E-17,-0.02,-0.052));
#1052=CARTESIAN_POINT('',(-0.036,-0.02,-0.052));
#1053=CARTESIAN_POINT('',(0.036,-0.02,-0.052));
#1054=CARTESIAN_POINT('',(-0.036,-0.02,-0.052));
#1055=CARTESIAN_POINT('',(-0.036,-0.001,-0.052));
#1056=CARTESIAN_POINT('',(-1.38777878078145E-17,-0.001,-0.052));
#1057=CARTESIAN_POINT('',(0.036,-0.001,-0.052));
#1058=CARTESIAN_POINT('',(0.036,-0.02,-0.052));
#1059=CARTESIAN_POINT('',(6.93889390390723E-18,-0.02,0.052));
#1060=CARTESIAN_POINT('',(6.93889390390723E-18,-0.02,0.052));
#1061=CARTESIAN_POINT('',(-0.036,-0.02,0.052));
#1062=CARTESIAN_POINT('',(0.036,-0.02,0.052));
#1063=CARTESIAN_POINT('',(0.036,-0.02,0.052));
#1064=CARTESIAN_POINT('',(0.036,-0.001,0.052));
#1065=CARTESIAN_POINT('',(-0.037,-0.001,0.052));
#1066=CARTESIAN_POINT('',(-0.036,-0.001,0.052));
#1067=CARTESIAN_POINT('',(-0.036,-0.02,0.052));
#1068=CARTESIAN_POINT('',(0.012,-0.0105,-0.0389));
#1069=CARTESIAN_POINT('',(0.036,-0.0105,-0.0389));
#1070=CARTESIAN_POINT('',(0.036,-0.0105,-0.0434573997538173));
#1071=CARTESIAN_POINT('',(0.034,-0.0105,-0.0389));
#1072=CARTESIAN_POINT('',(0.034,-0.0105,-0.0434573997538173));
#1073=CARTESIAN_POINT('',(0.,-0.003,0.));
#1074=CARTESIAN_POINT('',(6.93889390390723E-18,-0.003,0.049));
#1075=CARTESIAN_POINT('',(-0.034,-0.003,0.049));
#1076=CARTESIAN_POINT('',(0.034,-0.003,0.049));
#1077=CARTESIAN_POINT('',(-0.034,-0.003,-6.00481203222741E-19));
#1078=CARTESIAN_POINT('',(-0.034,-0.003,-0.049));
#1079=CARTESIAN_POINT('',(-1.38777878078145E-17,-0.003,-0.049));
#1080=CARTESIAN_POINT('',(0.034,-0.003,-0.049));
#1081=CARTESIAN_POINT('',(0.034,-0.003,6.00481203222741E-19));
#1082=CARTESIAN_POINT('',(-1.38777878078145E-17,-0.02,-0.049));
#1083=CARTESIAN_POINT('',(-0.034,-0.02,-0.049));
#1084=CARTESIAN_POINT('',(-0.034,-0.02,-0.049));
#1085=CARTESIAN_POINT('',(-1.38777878078145E-17,-0.02,-0.049));
#1086=CARTESIAN_POINT('',(0.034,-0.02,-0.049));
#1087=CARTESIAN_POINT('',(0.034,-0.02,-0.049));
#1088=CARTESIAN_POINT('',(0.034,-0.02,6.00481203222741E-19));
#1089=CARTESIAN_POINT('',(0.034,-0.02,6.00481203222741E-19));
#1090=CARTESIAN_POINT('',(0.034,-0.02,0.049));
#1091=CARTESIAN_POINT('',(0.034,-0.02,0.049));
#1092=CARTESIAN_POINT('',(6.93889390390723E-18,-0.02,0.049));
#1093=CARTESIAN_POINT('',(6.93889390390723E-18,-0.02,0.049));
#1094=CARTESIAN_POINT('',(-0.034,-0.02,0.049));
#1095=CARTESIAN_POINT('',(-0.034,-0.02,0.049));
#1096=CARTESIAN_POINT('',(-0.034,-0.02,-6.00481203222741E-19));
#1097=CARTESIAN_POINT('',(-0.034,-0.02,-6.00481203222741E-19));
#1098=CARTESIAN_POINT('',(-0.034,-0.0043468709785243,-0.0317110227644444));
#1099=CARTESIAN_POINT('',(-0.034,-0.0043468709785243,-0.0422110227644444));
#1100=CARTESIAN_POINT('',(-0.034,-0.0088468709785243,-0.0422110227644444));
#1101=CARTESIAN_POINT('',(-0.034,-0.0088468709785243,-0.0317110227644444));
#1102=CARTESIAN_POINT('',(0.,-0.02,0.));
#1103=CARTESIAN_POINT('',(-0.036,-0.02,-0.051));
#1104=CARTESIAN_POINT('',(0.036,-0.02,-0.051));
#1105=CARTESIAN_POINT('',(0.036,-0.02,0.051));
#1106=CARTESIAN_POINT('',(-0.036,-0.02,0.051));
#1107=CARTESIAN_POINT('',(-0.012,-0.0043468709785243,-0.0422110227644444));
#1108=CARTESIAN_POINT('',(-0.036,-0.0043468709785243,-0.0422110227644444));
#1109=CARTESIAN_POINT('',(-0.036,-0.0043468709785243,-0.0422110227644444));
#1110=CARTESIAN_POINT('',(-0.036,-0.0043468709785243,-0.0442110227644444));
#1111=CARTESIAN_POINT('',(-0.036,-0.0023468709785243,-0.0422110227644444));
#1112=CARTESIAN_POINT('',(-0.012,-0.0043468709785243,-0.0317110227644444));
#1113=CARTESIAN_POINT('',(-0.036,-0.0043468709785243,-0.0317110227644444));
#1114=CARTESIAN_POINT('',(-0.036,-0.0023468709785243,-2.00160401074247E-19));
#1115=CARTESIAN_POINT('',(-0.036,-0.0023468709785243,-0.0317110227644444));
#1116=CARTESIAN_POINT('',(-0.036,-0.02,-0.0442110227644444));
#1117=CARTESIAN_POINT('',(-0.036,-0.0088468709785243,-0.0442110227644444));
#1118=CARTESIAN_POINT('',(-0.012,-0.0088468709785243,-0.0422110227644444));
#1119=CARTESIAN_POINT('',(-0.036,-0.0088468709785243,-0.0422110227644444));
#1120=CARTESIAN_POINT('',(-0.036,-0.0043468709785243,-0.0317110227644444));
#1121=CARTESIAN_POINT('',(-0.036,-0.0043468709785243,-0.0297110227644443));
#1122=CARTESIAN_POINT('',(-0.036,-0.0088468709785243,-0.0422110227644444));
#1123=CARTESIAN_POINT('',(-0.036,-0.0108468709785243,-0.0422110227644444));
#1124=CARTESIAN_POINT('',(-0.036,-0.0065968709785243,-0.0297110227644443));
#1125=CARTESIAN_POINT('',(-0.036,-0.0088468709785243,-0.0297110227644443));
#1126=CARTESIAN_POINT('',(-0.036,-0.0108468709785243,-0.0369610227644444));
#1127=CARTESIAN_POINT('',(-0.036,-0.0108468709785243,-0.0317110227644444));
#1128=CARTESIAN_POINT('',(-0.036,-0.0088468709785243,-0.0317110227644444));
#1129=CARTESIAN_POINT('',(-0.036,-0.0088468709785243,-0.0317110227644444));
#1130=CARTESIAN_POINT('',(-0.012,-0.0088468709785243,-0.0317110227644444));
#1131=CARTESIAN_POINT('',(0.036,-0.02,0.051));
#1132=CARTESIAN_POINT('',(0.036,-0.001,0.051));
#1133=CARTESIAN_POINT('',(0.036,-0.001,0.051));
#1134=CARTESIAN_POINT('',(0.036,-0.001,0.051));
#1135=CARTESIAN_POINT('',(0.036,-0.001,0.051));
#1136=CARTESIAN_POINT('',(0.036,-0.02,-0.051));
#1137=CARTESIAN_POINT('',(0.036,-0.001,-0.051));
#1138=CARTESIAN_POINT('',(0.036,-0.001,-7.20577443867289E-18));
#1139=CARTESIAN_POINT('',(0.036,-0.001,-0.051));
#1140=CARTESIAN_POINT('',(0.,-0.001,0.051));
#1141=CARTESIAN_POINT('',(-0.036,-0.001,0.051));
#1142=CARTESIAN_POINT('',(-0.036,-0.02,0.051));
#1143=CARTESIAN_POINT('',(-0.036,-0.001,0.051));
#1144=CARTESIAN_POINT('',(0.036,-0.001,-0.051));
#1145=CARTESIAN_POINT('',(0.036,-0.001,-0.051));
#1146=CARTESIAN_POINT('',(-0.036,-0.001,0.051));
#1147=CARTESIAN_POINT('',(-0.036,-0.001,0.051));
#1148=CARTESIAN_POINT('',(-1.38777878078145E-17,-0.001,-0.051));
#1149=CARTESIAN_POINT('',(-0.036,-0.001,-0.051));
#1150=CARTESIAN_POINT('',(-0.036,-0.001,-2.00160401074247E-19));
#1151=CARTESIAN_POINT('',(-0.036,-0.001,-0.051));
#1152=CARTESIAN_POINT('',(-0.036,-0.001,-0.051));
#1153=CARTESIAN_POINT('',(-0.036,-0.001,-0.051));
#1154=CARTESIAN_POINT('',(-0.036,-0.02,-0.051));
#1155=CARTESIAN_POINT('',(0.036,-0.0105,-0.0389));
#1156=MECHANICAL_DESIGN_GEOMETRIC_PRESENTATION_REPRESENTATION('',(#662),
#1157);
#1157=(
GEOMETRIC_REPRESENTATION_CONTEXT(3)
GLOBAL_UNCERTAINTY_ASSIGNED_CONTEXT((#1158))
GLOBAL_UNIT_ASSIGNED_CONTEXT((#1161,#1160,#1159))
REPRESENTATION_CONTEXT('bottom','TOP_LEVEL_ASSEMBLY_PART')
);
#1158=UNCERTAINTY_MEASURE_WITH_UNIT(LENGTH_MEASURE(1.E-8),#1161,
'DISTANCE_ACCURACY_VALUE','Maximum Tolerance applied to model');
#1159=(
NAMED_UNIT(*)
SI_UNIT($,.STERADIAN.)
SOLID_ANGLE_UNIT()
);
#1160=(
NAMED_UNIT(*)
PLANE_ANGLE_UNIT()
SI_UNIT($,.RADIAN.)
);
#1161=(
LENGTH_UNIT()
NAMED_UNIT(*)
SI_UNIT($,.METRE.)
);
#1162=PRODUCT_DEFINITION_SHAPE('','',#1163);
#1163=PRODUCT_DEFINITION('','',#1165,#1164);
#1164=PRODUCT_DEFINITION_CONTEXT('',#1171,'design');
#1165=PRODUCT_DEFINITION_FORMATION_WITH_SPECIFIED_SOURCE('','',#1167,
 .NOT_KNOWN.);
#1166=PRODUCT_RELATED_PRODUCT_CATEGORY('','',(#1167));
#1167=PRODUCT('bottom','bottom','bottom',(#1169));
#1168=PRODUCT_CATEGORY('','');
#1169=PRODUCT_CONTEXT('',#1171,'mechanical');
#1170=APPLICATION_PROTOCOL_DEFINITION('international standard',
'ap242_managed_model_based_3d_engineering',2020,#1171);
#1171=APPLICATION_CONTEXT('managed model based 3d engineering');
ENDSEC;
END-ISO-10303-21;
